<?xml version="1.0" encoding="UTF-8"?>
<!-- Generated by Pixelmator Pro 3.2.1 -->
<svg width="100" height="100" viewBox="0 0 100 100" xmlns="http://www.w3.org/2000/svg" xmlns:xlink="http://www.w3.org/1999/xlink">
    <g id="g1">
        <path id="--3" fill="#d7d7f7" fill-rule="evenodd" stroke="none" d="M 29.429688 88.763672 C 26.396698 88.791832 23.336174 87.805908 20.794922 85.748047 L 8.173828 75.527344 C 2.365253 70.823654 1.470137 62.302715 6.173828 56.494141 L 30.021484 27.044922 C 34.725178 21.236351 43.246113 20.34124 49.054688 25.044922 L 61.675781 35.263672 C 67.484352 39.967365 68.379471 48.490253 63.675781 54.298828 L 39.830078 83.748047 C 37.18425 87.015373 33.329243 88.727463 29.429688 88.763672 Z M 28.5625 76.359375 C 30.291368 76.343323 31.998848 75.585281 33.171875 74.136719 L 52.849609 49.837891 C 54.93499 47.262657 54.538124 43.483818 51.962891 41.398438 L 45.755859 36.373047 C 43.180626 34.287666 39.401787 34.684532 37.316406 37.259766 L 17.640625 61.558594 C 15.555243 64.133827 15.952111 67.912666 18.527344 69.998047 L 24.734375 75.023438 C 25.86104 75.935791 27.217825 76.371857 28.5625 76.359375 Z"/>
        <path id="-" fill="#d7d7f7" fill-rule="evenodd" stroke="none" d="M 58.429688 78.763672 C 55.396698 78.791832 52.336174 77.805908 49.794922 75.748047 L 37.173828 65.527344 C 31.365253 60.823654 30.470137 52.302715 35.173828 46.494141 L 59.021484 17.044922 C 63.725178 11.236351 72.246117 10.34124 78.054688 15.044922 L 90.675781 25.263672 C 96.484352 29.967361 97.379471 38.490253 92.675781 44.298828 L 68.830078 73.748047 C 66.184258 77.015366 62.329247 78.727463 58.429688 78.763672 Z M 57.5625 66.359375 C 59.29137 66.343323 60.998848 65.585281 62.171875 64.136719 L 81.849609 39.837891 C 83.934998 37.262657 83.538124 33.483818 80.962891 31.398438 L 74.755859 26.373047 C 72.180626 24.287659 68.401787 24.684532 66.316406 27.259766 L 46.640625 51.558594 C 44.555244 54.133827 44.95211 57.912666 47.527344 59.998047 L 53.734375 65.023438 C 54.861042 65.935791 56.217823 66.371857 57.5625 66.359375 Z"/>
    </g>
</svg>
