<?xml version="1.0" encoding="UTF-8"?>
<!-- Generated by Pixelmator Pro 3.0.1 -->
<svg width="100" height="100" viewBox="0 0 100 100" xmlns="http://www.w3.org/2000/svg" xmlns:xlink="http://www.w3.org/1999/xlink">
    <path id="path1" fill="#ced9d8" fill-rule="evenodd" stroke="none" d="M 32 68 L 32 83.979332 L 32 100 L 16.02067 100 L 16.02067 83.979332 L 0 84 L 0 68 L 16.02067 68 L 32 68 Z"/>
    <path id="--2" fill="#ced9d8" fill-rule="evenodd" stroke="none" d="M 68 32 L 68 16.020668 L 68 0 L 83.979332 0 L 83.979332 16.020668 L 100 16 L 100 32 L 83.979332 32 L 68 32 Z"/>
    <path id="--3" fill="#ced9d8" fill-rule="evenodd" stroke="none" d="M 68 68 L 68 83.979332 L 68 100 L 83.979332 100 L 83.979332 83.979332 L 100 84 L 100 68 L 83.979332 68 L 68 68 Z"/>
    <path id="-" fill="#ced9d8" fill-rule="evenodd" stroke="none" d="M 32 32 L 32 16.020668 L 32 0 L 16.02067 0 L 16.02067 16.020668 L 0 16 L 0 32 L 16.02067 32 L 32 32 Z"/>
</svg>
