<?xml version="1.0" encoding="UTF-8"?>
<!-- Generated by Pixelmator Pro 3.0.1 -->
<svg width="100" height="100" viewBox="0 0 100 100" xmlns="http://www.w3.org/2000/svg" xmlns:xlink="http://www.w3.org/1999/xlink">
    <path id="path1" fill="#ced9d8" fill-rule="evenodd" stroke="none" d="M 0 100 L 0 84.020668 L 0 68 L 15.979329 68 L 15.979329 84.020668 L 32 84 L 32 100 L 15.979329 100 L 0 100 Z"/>
    <path id="--2" fill="#ced9d8" fill-rule="evenodd" stroke="none" d="M 100 0 L 100 15.979332 L 100 32 L 84.020668 32 L 84.020668 15.979332 L 68 16 L 68 0 L 84.020668 0 L 100 0 Z"/>
    <path id="--3" fill="#ced9d8" fill-rule="evenodd" stroke="none" d="M 100 100 L 100 84.020668 L 100 68 L 84.020668 68 L 84.020668 84.020668 L 68 84 L 68 100 L 84.020668 100 L 100 100 Z"/>
    <path id="-" fill="#ced9d8" fill-rule="evenodd" stroke="none" d="M 0 0 L 0 15.979332 L 0 32 L 15.979329 32 L 15.979329 15.979332 L 32 16 L 32 0 L 15.979329 0 L 0 0 Z"/>
</svg>
