<?xml version="1.0" encoding="UTF-8"?>
<!-- Generated by Pixelmator Pro 3.1.1 -->
<svg width="100" height="100" viewBox="0 0 100 100" xmlns="http://www.w3.org/2000/svg" xmlns:xlink="http://www.w3.org/1999/xlink">
    <path id="path1" fill="#d9cce7" fill-rule="evenodd" stroke="none" d="M 58.939121 45.931763 C 57.044682 48.316456 57.044682 51.683544 58.939121 54.068237 C 65.75029 62.054943 80.222221 72.859848 80.222221 89.348839 C 80.222221 93.574448 76.779289 97 72.532181 97 L 27.856707 97 C 23.6096 97 20.166666 93.574448 20.166666 89.348839 C 20.166666 72.859848 34.638599 62.054943 41.449768 54.068237 C 43.344208 51.683544 43.344208 48.316456 41.449768 45.931763 C 34.638599 37.945057 20.166666 27.140152 20.166666 10.651161 C 20.166666 6.425552 23.6096 3 27.856707 3 L 72.532181 3 C 76.779289 3 80.222221 6.425552 80.222221 10.651161 C 80.222221 27.140152 65.75029 37.945057 58.939121 45.931763 Z M 64.109756 27.775192 L 36.279137 27.775192 C 35.629894 27.774948 35.02911 28.116783 34.700062 28.673637 C 34.371017 29.230469 34.362968 29.919037 34.678875 30.48333 C 34.927906 30.925285 43.591984 38.793598 47.188019 42.049339 C 48.136444 42.904823 48.729675 44.520317 48.729675 45.988243 L 48.729675 71.500122 C 48.729675 72.968056 48.136444 74.583549 47.188019 75.439034 C 43.591984 78.694771 34.927906 86.563087 34.678875 87.005035 C 34.362968 87.569336 34.371017 88.257904 34.700062 88.814735 C 35.02911 89.371582 35.629894 89.713425 36.279137 89.713181 L 64.109756 89.713181 C 64.758995 89.713425 65.359779 89.371582 65.688828 88.814735 C 66.017868 88.257904 66.025917 87.569336 65.710014 87.005035 C 65.460983 86.563087 56.796906 78.694771 53.200871 75.439034 C 52.252445 74.583549 51.659214 72.968056 51.659214 71.500122 L 51.659214 45.988243 C 51.659214 44.520317 52.252445 42.904823 53.200871 42.049339 C 56.796906 38.793598 65.460983 30.925285 65.710014 30.48333 C 66.025917 29.919037 66.017868 29.230469 65.688828 28.673637 C 65.359779 28.116783 64.758995 27.774948 64.109756 27.775192 Z"/>
</svg>
